# xmcd CD database file
#
# Track frame offsets:
#	150
#	22658
#	46680
#	70122
#	94605
#	124736
#	152149
#	176972
#	201043
#	222273
#	243033
#	265581
#	287875
#	310784
#
# Disc length: 4432 seconds
#
# Revision: 0
# Processed by: cddbd v1.5.2PL0 Copyright (c) Steve Scherf et al.
# Submitted via: CDex 1.70beta2
#
DISCID=b6114e0e
DTITLE=Golding, William - Herr der Fliegen
DYEAR=2009
DGENRE=Hoerbuch
TTITLE0=55
TTITLE1=56
TTITLE2=57
TTITLE3=58
TTITLE4=59
TTITLE5=60
TTITLE6=61
TTITLE7=62
TTITLE8=63
TTITLE9=64
TTITLE10=65
TTITLE11=66
TTITLE12=67
TTITLE13=68
EXTD=YEAR: 2009
EXTT0=
EXTT1=
EXTT2=
EXTT3=
EXTT4=
EXTT5=
EXTT6=
EXTT7=
EXTT8=
EXTT9=
EXTT10=
EXTT11=
EXTT12=
EXTT13=
PLAYORDER=
